<?xml version="1.0" encoding="utf-8" ?>
<svg baseProfile="tiny" height="100%" version="1.2" width="100%" xmlns="http://www.w3.org/2000/svg" xmlns:ev="http://www.w3.org/2001/xml-events" xmlns:xlink="http://www.w3.org/1999/xlink"><defs /><line stroke="blue" x1="441" x2="489" y1="582" y2="528" /><line stroke="blue" x1="441" x2="465" y1="582" y2="472" /><line stroke="blue" x1="441" x2="435" y1="582" y2="582" /><line stroke="blue" x1="441" x2="443" y1="582" y2="584" /><line stroke="blue" x1="489" x2="441" y1="528" y2="582" /><line stroke="blue" x1="489" x2="532" y1="528" y2="534" /><line stroke="blue" x1="465" x2="441" y1="472" y2="582" /><line stroke="blue" x1="465" x2="521" y1="472" y2="422" /><line stroke="blue" x1="521" x2="465" y1="422" y2="472" /><line stroke="blue" x1="532" x2="489" y1="534" y2="528" /><line stroke="blue" x1="532" x2="532" y1="534" y2="584" /><line stroke="blue" x1="532" x2="568" y1="534" y2="543" /><line stroke="blue" x1="532" x2="532" y1="584" y2="534" /><line stroke="blue" x1="435" x2="441" y1="582" y2="582" /><line stroke="blue" x1="443" x2="441" y1="584" y2="582" /><line stroke="blue" x1="568" x2="532" y1="543" y2="534" /><circle cx="481" cy="537" fill="green" r="2" stroke="green" /><circle cx="455" cy="518" fill="green" r="2" stroke="green" /><circle cx="477" cy="461" fill="green" r="2" stroke="green" /><circle cx="532" cy="559" fill="green" r="2" stroke="green" /><circle cx="550" cy="539" fill="green" r="2" stroke="green" /><circle cx="532" cy="559" fill="green" r="2" stroke="green" /><circle cx="550" cy="539" fill="green" r="2" stroke="green" /></svg>