<?xml version="1.0" encoding="utf-8" ?>
<svg baseProfile="tiny" height="100%" version="1.2" width="100%" xmlns="http://www.w3.org/2000/svg" xmlns:ev="http://www.w3.org/2001/xml-events" xmlns:xlink="http://www.w3.org/1999/xlink"><defs /><line stroke="blue" x1="460" x2="499" y1="548" y2="510" /><line stroke="blue" x1="485" x2="492" y1="574" y2="557" /><line stroke="blue" x1="490" x2="499" y1="497" y2="510" /><line stroke="blue" x1="492" x2="485" y1="557" y2="574" /><line stroke="blue" x1="505" x2="518" y1="479" y2="492" /><line stroke="blue" x1="514" x2="513" y1="575" y2="502" /><line stroke="blue" x1="527" x2="531" y1="454" y2="462" /><line stroke="blue" x1="536" x2="528" y1="507" y2="484" /><line stroke="blue" x1="543" x2="537" y1="454" y2="468" /><line stroke="blue" x1="551" x2="554" y1="557" y2="574" /><line stroke="blue" x1="554" x2="551" y1="574" y2="557" /><line stroke="blue" x1="499" x2="460" y1="510" y2="548" /><line stroke="blue" x1="499" x2="490" y1="510" y2="497" /><line stroke="blue" x1="499" x2="513" y1="510" y2="502" /><line stroke="blue" x1="513" x2="514" y1="502" y2="575" /><line stroke="blue" x1="513" x2="499" y1="502" y2="510" /><line stroke="blue" x1="513" x2="518" y1="502" y2="492" /><line stroke="blue" x1="518" x2="505" y1="492" y2="479" /><line stroke="blue" x1="518" x2="513" y1="492" y2="502" /><line stroke="blue" x1="518" x2="528" y1="492" y2="484" /><line stroke="blue" x1="528" x2="536" y1="484" y2="507" /><line stroke="blue" x1="528" x2="518" y1="484" y2="492" /><line stroke="blue" x1="528" x2="530" y1="484" y2="478" /><line stroke="blue" x1="531" x2="527" y1="462" y2="454" /><line stroke="blue" x1="531" x2="530" y1="462" y2="478" /><line stroke="blue" x1="531" x2="537" y1="462" y2="468" /><line stroke="blue" x1="530" x2="528" y1="478" y2="484" /><line stroke="blue" x1="530" x2="531" y1="478" y2="462" /><line stroke="blue" x1="530" x2="537" y1="478" y2="468" /><line stroke="blue" x1="537" x2="543" y1="468" y2="454" /><line stroke="blue" x1="537" x2="531" y1="468" y2="462" /><line stroke="blue" x1="537" x2="530" y1="468" y2="478" /><circle cx="479" cy="529" fill="green" r="2" stroke="green" /><circle cx="479" cy="529" fill="green" r="2" stroke="green" /><circle cx="514" cy="538" fill="green" r="2" stroke="green" /><circle cx="514" cy="538" fill="green" r="2" stroke="green" /></svg>