<?xml version="1.0" encoding="utf-8" ?>
<svg baseProfile="tiny" height="100%" version="1.2" width="100%" xmlns="http://www.w3.org/2000/svg" xmlns:ev="http://www.w3.org/2001/xml-events" xmlns:xlink="http://www.w3.org/1999/xlink"><defs /><line stroke="blue" x1="460" x2="468" y1="462" y2="458" /><line stroke="blue" x1="472" x2="468" y1="452" y2="458" /><line stroke="blue" x1="478" x2="506" y1="565" y2="531" /><line stroke="blue" x1="481" x2="506" y1="523" y2="531" /><line stroke="blue" x1="488" x2="468" y1="493" y2="458" /><line stroke="blue" x1="507" x2="535" y1="458" y2="517" /><line stroke="blue" x1="510" x2="516" y1="560" y2="532" /><line stroke="blue" x1="533" x2="561" y1="454" y2="488" /><line stroke="blue" x1="561" x2="533" y1="488" y2="454" /><line stroke="blue" x1="561" x2="535" y1="554" y2="517" /><line stroke="blue" x1="468" x2="460" y1="458" y2="462" /><line stroke="blue" x1="468" x2="472" y1="458" y2="452" /><line stroke="blue" x1="468" x2="488" y1="458" y2="493" /><line stroke="blue" x1="506" x2="478" y1="531" y2="565" /><line stroke="blue" x1="506" x2="481" y1="531" y2="523" /><line stroke="blue" x1="506" x2="516" y1="531" y2="532" /><line stroke="blue" x1="516" x2="510" y1="532" y2="560" /><line stroke="blue" x1="516" x2="506" y1="532" y2="531" /><line stroke="blue" x1="516" x2="535" y1="532" y2="517" /><line stroke="blue" x1="535" x2="507" y1="517" y2="458" /><line stroke="blue" x1="535" x2="561" y1="517" y2="554" /><line stroke="blue" x1="535" x2="516" y1="517" y2="532" /><circle cx="478" cy="476" r="1" stroke="red" /><circle cx="492" cy="548" r="1" stroke="red" /><circle cx="492" cy="548" r="1" stroke="red" /><circle cx="478" cy="476" r="1" stroke="red" /><circle cx="521" cy="488" r="1" stroke="red" /><circle cx="521" cy="488" r="1" stroke="red" /><circle cx="548" cy="536" r="1" stroke="red" /><circle cx="547" cy="471" r="1" stroke="red" /><circle cx="547" cy="471" r="1" stroke="red" /><circle cx="548" cy="536" r="1" stroke="red" /></svg>