<?xml version="1.0" encoding="utf-8" ?>
<svg baseProfile="tiny" height="100%" version="1.2" width="100%" xmlns="http://www.w3.org/2000/svg" xmlns:ev="http://www.w3.org/2001/xml-events" xmlns:xlink="http://www.w3.org/1999/xlink"><defs /><line stroke="blue" x1="460" x2="505" y1="482" y2="479" /><line stroke="blue" x1="460" x2="475" y1="496" y2="523" /><line stroke="blue" x1="475" x2="475" y1="575" y2="523" /><line stroke="blue" x1="485" x2="489" y1="543" y2="536" /><line stroke="blue" x1="504" x2="505" y1="454" y2="479" /><line stroke="blue" x1="505" x2="509" y1="574" y2="570" /><line stroke="blue" x1="513" x2="509" y1="575" y2="570" /><line stroke="blue" x1="519" x2="512" y1="453" y2="479" /><line stroke="blue" x1="549" x2="509" y1="554" y2="561" /><line stroke="blue" x1="554" x2="550" y1="478" y2="487" /><line stroke="blue" x1="561" x2="550" y1="495" y2="487" /><line stroke="blue" x1="475" x2="460" y1="523" y2="496" /><line stroke="blue" x1="475" x2="475" y1="523" y2="575" /><line stroke="blue" x1="475" x2="489" y1="523" y2="536" /><line stroke="blue" x1="489" x2="485" y1="536" y2="543" /><line stroke="blue" x1="489" x2="475" y1="536" y2="523" /><line stroke="blue" x1="489" x2="506" y1="536" y2="557" /><line stroke="blue" x1="489" x2="509" y1="536" y2="512" /><line stroke="blue" x1="505" x2="460" y1="479" y2="482" /><line stroke="blue" x1="505" x2="504" y1="479" y2="454" /><line stroke="blue" x1="505" x2="509" y1="479" y2="512" /><line stroke="blue" x1="505" x2="512" y1="479" y2="479" /><line stroke="blue" x1="506" x2="489" y1="557" y2="536" /><line stroke="blue" x1="506" x2="509" y1="557" y2="512" /><line stroke="blue" x1="506" x2="509" y1="557" y2="561" /><line stroke="blue" x1="509" x2="489" y1="512" y2="536" /><line stroke="blue" x1="509" x2="505" y1="512" y2="479" /><line stroke="blue" x1="509" x2="506" y1="512" y2="557" /><line stroke="blue" x1="509" x2="549" y1="561" y2="554" /><line stroke="blue" x1="509" x2="506" y1="561" y2="557" /><line stroke="blue" x1="509" x2="509" y1="561" y2="570" /><line stroke="blue" x1="509" x2="505" y1="570" y2="574" /><line stroke="blue" x1="509" x2="513" y1="570" y2="575" /><line stroke="blue" x1="509" x2="509" y1="570" y2="561" /><line stroke="blue" x1="512" x2="519" y1="479" y2="453" /><line stroke="blue" x1="512" x2="505" y1="479" y2="479" /><line stroke="blue" x1="512" x2="550" y1="479" y2="487" /><line stroke="blue" x1="550" x2="554" y1="487" y2="478" /><line stroke="blue" x1="550" x2="561" y1="487" y2="495" /><line stroke="blue" x1="550" x2="512" y1="487" y2="479" /><circle cx="483" cy="481" r="1" stroke="red" /><circle cx="483" cy="481" r="1" stroke="red" /><circle cx="475" cy="549" r="1" stroke="red" /><circle cx="475" cy="549" r="1" stroke="red" /><circle cx="531" cy="483" r="1" stroke="red" /><circle cx="529" cy="558" r="1" stroke="red" /><circle cx="529" cy="558" r="1" stroke="red" /><circle cx="531" cy="483" r="1" stroke="red" /><circle cx="507" cy="534" r="1" stroke="red" /><circle cx="507" cy="534" r="1" stroke="red" /></svg>