<?xml version="1.0" encoding="utf-8" ?>
<svg baseProfile="tiny" height="100%" version="1.2" width="100%" xmlns="http://www.w3.org/2000/svg" xmlns:ev="http://www.w3.org/2001/xml-events" xmlns:xlink="http://www.w3.org/1999/xlink"><defs /><line stroke="blue" x1="435" x2="467" y1="445" y2="450" /><line stroke="blue" x1="435" x2="468" y1="445" y2="448" /><line stroke="blue" x1="435" x2="435" y1="445" y2="444" /><line stroke="blue" x1="467" x2="435" y1="450" y2="445" /><line stroke="blue" x1="468" x2="435" y1="448" y2="445" /><line stroke="blue" x1="468" x2="501" y1="448" y2="457" /><line stroke="blue" x1="468" x2="474" y1="448" y2="430" /><line stroke="blue" x1="501" x2="468" y1="457" y2="448" /><line stroke="blue" x1="501" x2="532" y1="457" y2="475" /><line stroke="blue" x1="501" x2="529" y1="457" y2="443" /><line stroke="blue" x1="474" x2="468" y1="430" y2="448" /><line stroke="blue" x1="474" x2="483" y1="430" y2="422" /><line stroke="blue" x1="532" x2="501" y1="475" y2="457" /><line stroke="blue" x1="532" x2="563" y1="475" y2="491" /><line stroke="blue" x1="532" x2="529" y1="475" y2="502" /><line stroke="blue" x1="529" x2="501" y1="443" y2="457" /><line stroke="blue" x1="529" x2="560" y1="443" y2="432" /><line stroke="blue" x1="529" x2="525" y1="443" y2="423" /><line stroke="blue" x1="563" x2="532" y1="491" y2="475" /><line stroke="blue" x1="563" x2="559" y1="491" y2="511" /><line stroke="blue" x1="563" x2="568" y1="491" y2="495" /><line stroke="blue" x1="529" x2="532" y1="502" y2="475" /><line stroke="blue" x1="529" x2="518" y1="502" y2="522" /><line stroke="blue" x1="559" x2="563" y1="511" y2="491" /><line stroke="blue" x1="559" x2="551" y1="511" y2="532" /><line stroke="blue" x1="559" x2="542" y1="511" y2="515" /><line stroke="blue" x1="551" x2="559" y1="532" y2="511" /><line stroke="blue" x1="551" x2="552" y1="532" y2="551" /><line stroke="blue" x1="551" x2="545" y1="532" y2="575" /><line stroke="blue" x1="542" x2="559" y1="515" y2="511" /><line stroke="blue" x1="552" x2="551" y1="551" y2="532" /><line stroke="blue" x1="552" x2="553" y1="551" y2="575" /><line stroke="blue" x1="552" x2="568" y1="551" y2="555" /><line stroke="blue" x1="553" x2="552" y1="575" y2="551" /><line stroke="blue" x1="553" x2="567" y1="575" y2="582" /><line stroke="blue" x1="553" x2="552" y1="575" y2="584" /><line stroke="blue" x1="568" x2="552" y1="555" y2="551" /><line stroke="blue" x1="567" x2="553" y1="582" y2="575" /><line stroke="blue" x1="567" x2="567" y1="582" y2="584" /><line stroke="blue" x1="567" x2="568" y1="582" y2="582" /><line stroke="blue" x1="545" x2="551" y1="575" y2="532" /><line stroke="blue" x1="545" x2="538" y1="575" y2="584" /><line stroke="blue" x1="518" x2="529" y1="522" y2="502" /><line stroke="blue" x1="518" x2="505" y1="522" y2="540" /><line stroke="blue" x1="518" x2="508" y1="522" y2="516" /><line stroke="blue" x1="505" x2="518" y1="540" y2="522" /><line stroke="blue" x1="505" x2="490" y1="540" y2="531" /><line stroke="blue" x1="505" x2="468" y1="540" y2="584" /><line stroke="blue" x1="508" x2="518" y1="516" y2="522" /><line stroke="blue" x1="490" x2="505" y1="531" y2="540" /><line stroke="blue" x1="490" x2="471" y1="531" y2="534" /><line stroke="blue" x1="490" x2="481" y1="531" y2="491" /><line stroke="blue" x1="471" x2="490" y1="534" y2="531" /><line stroke="blue" x1="471" x2="452" y1="534" y2="537" /><line stroke="blue" x1="471" x2="464" y1="534" y2="548" /><line stroke="blue" x1="452" x2="471" y1="537" y2="534" /><line stroke="blue" x1="452" x2="441" y1="537" y2="523" /><line stroke="blue" x1="452" x2="435" y1="537" y2="544" /><line stroke="blue" x1="464" x2="471" y1="548" y2="534" /><line stroke="blue" x1="441" x2="452" y1="523" y2="537" /><line stroke="blue" x1="440" x2="435" y1="562" y2="550" /><line stroke="blue" x1="481" x2="490" y1="491" y2="531" /><line stroke="blue" x1="560" x2="529" y1="432" y2="443" /><line stroke="blue" x1="525" x2="529" y1="423" y2="443" /><line stroke="blue" x1="525" x2="525" y1="423" y2="422" /><line stroke="blue" x1="475" x2="507" y1="430" y2="444" /><line stroke="blue" x1="475" x2="441" y1="430" y2="510" /><line stroke="blue" x1="475" x2="455" y1="430" y2="422" /><line stroke="blue" x1="507" x2="475" y1="444" y2="430" /><line stroke="blue" x1="507" x2="536" y1="444" y2="466" /><line stroke="blue" x1="507" x2="498" y1="444" y2="460" /><line stroke="blue" x1="536" x2="507" y1="466" y2="444" /><line stroke="blue" x1="536" x2="565" y1="466" y2="487" /><line stroke="blue" x1="536" x2="561" y1="466" y2="452" /><line stroke="blue" x1="498" x2="507" y1="460" y2="444" /><line stroke="blue" x1="565" x2="536" y1="487" y2="466" /><line stroke="blue" x1="565" x2="549" y1="487" y2="530" /><line stroke="blue" x1="565" x2="568" y1="487" y2="490" /><line stroke="blue" x1="561" x2="536" y1="452" y2="466" /><line stroke="blue" x1="549" x2="565" y1="530" y2="487" /><line stroke="blue" x1="549" x2="539" y1="530" y2="550" /><line stroke="blue" x1="549" x2="562" y1="530" y2="541" /><line stroke="blue" x1="539" x2="549" y1="550" y2="530" /><line stroke="blue" x1="539" x2="521" y1="550" y2="560" /><line stroke="blue" x1="539" x2="549" y1="550" y2="564" /><line stroke="blue" x1="562" x2="549" y1="541" y2="530" /><line stroke="blue" x1="562" x2="568" y1="541" y2="543" /><line stroke="blue" x1="521" x2="539" y1="560" y2="550" /><line stroke="blue" x1="549" x2="539" y1="564" y2="550" /><line stroke="blue" x1="549" x2="564" y1="564" y2="570" /><line stroke="blue" x1="549" x2="568" y1="564" y2="571" /><line stroke="blue" x1="564" x2="549" y1="570" y2="564" /><line stroke="blue" x1="441" x2="475" y1="510" y2="430" /><line stroke="blue" x1="441" x2="476" y1="510" y2="513" /><line stroke="blue" x1="441" x2="435" y1="510" y2="520" /><line stroke="blue" x1="445" x2="483" y1="537" y2="534" /><line stroke="blue" x1="445" x2="435" y1="537" y2="532" /><line stroke="blue" x1="445" x2="439" y1="537" y2="584" /><line stroke="blue" x1="483" x2="445" y1="534" y2="537" /><line stroke="blue" x1="476" x2="441" y1="513" y2="510" /><line stroke="blue" x1="476" x2="494" y1="513" y2="503" /><line stroke="blue" x1="494" x2="476" y1="503" y2="513" /><line stroke="blue" x1="435" x2="435" y1="444" y2="445" /><line stroke="blue" x1="568" x2="563" y1="495" y2="491" /><line stroke="blue" x1="552" x2="553" y1="584" y2="575" /><line stroke="blue" x1="567" x2="567" y1="584" y2="582" /><line stroke="blue" x1="568" x2="567" y1="582" y2="582" /><line stroke="blue" x1="538" x2="545" y1="584" y2="575" /><line stroke="blue" x1="468" x2="505" y1="584" y2="540" /><line stroke="blue" x1="435" x2="452" y1="544" y2="537" /><line stroke="blue" x1="435" x2="440" y1="550" y2="562" /><line stroke="blue" x1="525" x2="525" y1="422" y2="423" /><line stroke="blue" x1="483" x2="474" y1="422" y2="430" /><line stroke="blue" x1="455" x2="475" y1="422" y2="430" /><line stroke="blue" x1="568" x2="565" y1="490" y2="487" /><line stroke="blue" x1="568" x2="549" y1="571" y2="564" /><line stroke="blue" x1="568" x2="562" y1="543" y2="541" /><line stroke="blue" x1="435" x2="441" y1="520" y2="510" /><line stroke="blue" x1="435" x2="445" y1="532" y2="537" /><line stroke="blue" x1="439" x2="445" y1="584" y2="537" /><circle cx="451" cy="448" r="1" stroke="red" /><circle cx="452" cy="447" r="1" stroke="red" /><circle cx="451" cy="448" r="1" stroke="red" /><circle cx="452" cy="447" r="1" stroke="red" /><circle cx="485" cy="453" r="1" stroke="red" /><circle cx="485" cy="453" r="1" stroke="red" /><circle cx="517" cy="466" r="1" stroke="red" /><circle cx="517" cy="466" r="1" stroke="red" /><circle cx="547" cy="483" r="1" stroke="red" /><circle cx="529" cy="501" r="1" stroke="red" /><circle cx="544" cy="437" r="1" stroke="red" /><circle cx="547" cy="483" r="1" stroke="red" /><circle cx="544" cy="437" r="1" stroke="red" /><circle cx="547" cy="559" r="1" stroke="red" /><circle cx="486" cy="562" r="1" stroke="red" /><circle cx="485" cy="511" r="1" stroke="red" /><circle cx="486" cy="562" r="1" stroke="red" /><circle cx="485" cy="511" r="1" stroke="red" /><circle cx="491" cy="437" r="1" stroke="red" /><circle cx="458" cy="470" r="1" stroke="red" /><circle cx="491" cy="437" r="1" stroke="red" /><circle cx="522" cy="455" r="1" stroke="red" /><circle cx="458" cy="470" r="1" stroke="red" /><circle cx="468" cy="512" r="1" stroke="red" /><circle cx="522" cy="455" r="1" stroke="red" /><circle cx="551" cy="476" r="1" stroke="red" /><circle cx="551" cy="476" r="1" stroke="red" /><circle cx="557" cy="508" r="1" stroke="red" /><circle cx="557" cy="508" r="1" stroke="red" /><circle cx="464" cy="535" r="1" stroke="red" /><circle cx="442" cy="560" r="1" stroke="red" /><circle cx="464" cy="535" r="1" stroke="red" /><circle cx="442" cy="560" r="1" stroke="red" /></svg>