<?xml version="1.0" encoding="utf-8" ?>
<svg baseProfile="tiny" height="100%" version="1.2" width="100%" xmlns="http://www.w3.org/2000/svg" xmlns:ev="http://www.w3.org/2001/xml-events" xmlns:xlink="http://www.w3.org/1999/xlink"><defs /><line stroke="blue" x1="459" x2="463" y1="553" y2="483" /><line stroke="blue" x1="463" x2="459" y1="483" y2="553" /><line stroke="blue" x1="507" x2="518" y1="501" y2="535" /><line stroke="blue" x1="522" x2="518" y1="573" y2="535" /><line stroke="blue" x1="530" x2="518" y1="496" y2="535" /><line stroke="blue" x1="541" x2="559" y1="573" y2="512" /><line stroke="blue" x1="559" x2="541" y1="512" y2="573" /><line stroke="blue" x1="518" x2="507" y1="535" y2="501" /><line stroke="blue" x1="518" x2="522" y1="535" y2="573" /><line stroke="blue" x1="518" x2="530" y1="535" y2="496" /><circle cx="461" cy="518" r="1" stroke="red" /><circle cx="461" cy="518" r="1" stroke="red" /><circle cx="524" cy="515" r="1" stroke="red" /><circle cx="524" cy="515" r="1" stroke="red" /><circle cx="550" cy="543" r="1" stroke="red" /><circle cx="550" cy="543" r="1" stroke="red" /></svg>